# xmcd
#
# Track frame offsets:
#	150
#	11458
#	22503
#	33420
#	40904
#	49248
#	54839
#	64842
#	71933
#	82164
#	91769
#	99955
#	107427
#	111952
#	118291
#	127454
#	135248
#	144551
#	154025
#	160170
#	174092
#	180273
#	191576
#	210146
#	224381
#	234691
#	258701
#	282146
#	295446
#
# Disc length: 4112 seconds
#
# Revision: 0
# Processed by: cddbd v1.5.2PL0 Copyright (c) Steve Scherf et al.
# Submitted via: EasyCDDAExtractor 16.0.9.1
#
DISCID=96100e1d
DTITLE=Юрий Кукин - Российские барды 22
DYEAR=2010
DGENRE=Ballad
TTITLE0=За туманом
TTITLE1=Поезд
TTITLE2=Париж
TTITLE3=Говоришь, чтоб остался я
TTITLE4=Ну, поедем!
TTITLE5=Солдат Киплинга
TTITLE6=Гостиница
TTITLE7=Тридцать лет
TTITLE8=Сумерки
TTITLE9=Ни боли, ни досады
TTITLE10=SOS
TTITLE11=Не помнил я, куда летел
TTITLE12=Песенка о ногах
TTITLE13=Темиртау
TTITLE14=Волшебник
TTITLE15=Песня клоуна
TTITLE16=Миражи
TTITLE17=Песня канатоходца
TTITLE18=Я губами солнце снял со щеки
TTITLE19=Пора
TTITLE20=Ничего
TTITLE21=Романс
TTITLE22=Город
TTITLE23=Маленький гном
TTITLE24=Ковбой
TTITLE25=Осенние письма
TTITLE26=Остается
TTITLE27=как осенний лист закат на землю падал
TTITLE28=А все-таки жаль
EXTD=
EXTT0=
EXTT1=
EXTT2=
EXTT3=
EXTT4=
EXTT5=
EXTT6=
EXTT7=
EXTT8=
EXTT9=
EXTT10=
EXTT11=
EXTT12=
EXTT13=
EXTT14=
EXTT15=
EXTT16=
EXTT17=
EXTT18=
EXTT19=
EXTT20=
EXTT21=
EXTT22=
EXTT23=
EXTT24=
EXTT25=
EXTT26=
EXTT27=
EXTT28=
PLAYORDER=
